<svg width="445" height="373" viewBox="0 0 445 373" fill="none" xmlns="http://www.w3.org/2000/svg">
<path d="M368.914 180.537C368.717 175.303 374.136 171.747 378.897 173.887V173.92L406.154 186.102C407.599 186.727 408.551 188.209 408.518 189.789C406.942 263.173 361.887 331.783 289.28 359.668C205.508 391.833 112.902 359.174 66.4021 286.251L66.6648 287.239L2.79272 190.48C-2.75706 182.085 0.231242 178.562 9.39331 182.678L66.5984 208.258C74.3484 211.715 80.0953 218.464 82.4597 226.629C83.5762 230.514 84.857 234.366 86.3347 238.218C100.291 274.762 127.614 303.667 163.277 319.602C182.324 328.095 202.519 332.376 222.748 332.376C240.415 332.376 258.116 329.116 275.094 322.598C311.545 308.606 340.377 281.214 356.271 245.461C365.499 224.72 369.735 202.595 368.914 180.537ZM342.268 157.344C351.382 161.437 359.054 173.021 359.251 183.055C359.775 209.129 352.825 235.204 338.432 258.605C328.007 275.571 304.828 297.289 287.321 306.597C249.39 326.73 206.048 328.051 167.723 310.854C134.546 295.936 109.105 268.903 96.0896 234.742L95.9587 234.347C92.6475 225.6 96.909 221.54 105.4 225.369L129.825 236.326C135.464 238.868 143.496 244.677 147.463 249.463C173.756 281.116 218.047 294.087 258.47 278.508C309.352 258.869 334.826 201.439 315.319 150.181C314.532 148.102 313.647 146.088 312.729 144.075L342.268 157.344ZM221.899 49.2402C240.765 49.2403 259.565 53.2394 277.315 61.2041C310.519 76.1421 335.979 103.209 349.005 137.414C352.384 146.271 348.086 150.369 339.49 146.502L315.013 135.497C308.287 132.457 302.152 128.127 297.427 122.442C271.081 90.8811 226.853 77.9927 186.497 93.5586L186.53 93.5918C135.609 113.256 110.116 170.793 129.637 222.085C130.425 224.101 131.245 226.05 132.131 227.967L102.765 214.78C92.6274 210.219 85.934 200.173 85.7371 189.003C84.7528 132.919 118.219 79.5787 173.143 58.3945C188.958 52.2806 205.429 49.2402 221.899 49.2402ZM155.814 12.3936C239.666 -19.8352 332.39 12.9208 378.916 85.9795L442.199 181.447C447.752 189.851 444.762 193.376 435.594 189.257L378.588 163.751C370.833 160.291 365.083 153.568 362.718 145.396C361.6 141.54 360.318 137.751 358.873 133.961C344.908 97.3821 317.571 68.4478 281.887 52.498C246.204 36.5156 206.48 35.4615 170.009 49.4668C110.241 72.4357 74.1306 130.698 76.1677 191.498C76.332 196.738 70.9428 200.296 66.1785 198.154L38.8416 185.929C37.3631 185.303 36.4426 183.82 36.4753 182.238C38.1511 108.85 83.2321 40.2726 155.814 12.3936Z" fill="#FF1A45"/>
</svg>
